<svg width="42" height="42" viewBox="0 0 42 42" fill="none" xmlns="http://www.w3.org/2000/svg">
<rect width="42" height="42" rx="21" fill="#F8F7F4"/>
<path fill-rule="evenodd" clip-rule="evenodd" d="M16 11C13.2386 11 11 13.2386 11 16V26C11 28.7614 13.2386 31 16 31H26C28.7614 31 31 28.7614 31 26V16C31 13.2386 28.7614 11 26 11H16ZM27 16C27.5523 16 28 15.5523 28 15C28 14.4477 27.5523 14 27 14C26.4477 14 26 14.4477 26 15C26 15.5523 26.4477 16 27 16ZM26 21C26 23.7614 23.7614 26 21 26C18.2386 26 16 23.7614 16 21C16 18.2386 18.2386 16 21 16C23.7614 16 26 18.2386 26 21ZM21 24C22.6569 24 24 22.6569 24 21C24 19.3431 22.6569 18 21 18C19.3431 18 18 19.3431 18 21C18 22.6569 19.3431 24 21 24Z" fill="#141414"/>
</svg>
