<svg width="42" height="42" viewBox="0 0 42 42" fill="none" xmlns="http://www.w3.org/2000/svg">
<rect width="42" height="42" rx="21" fill="#F8F7F4"/>
<path fill-rule="evenodd" clip-rule="evenodd" d="M18.8401 14.0625C18.4807 14.9684 18.1882 16.0688 17.9905 17.3042C18.9469 17.2165 19.9574 17.1699 21 17.1699C22.0427 17.1699 23.0531 17.2165 24.0095 17.3042C23.8119 16.0688 23.5193 14.9684 23.1599 14.0625C22.8144 13.1918 22.4221 12.5386 22.0253 12.1156C21.63 11.6942 21.2833 11.5527 21 11.5527C20.7168 11.5527 20.37 11.6942 19.9748 12.1156C19.5779 12.5386 19.1856 13.1918 18.8401 14.0625ZM17.4292 13.4936C16.9808 14.6239 16.6367 15.9855 16.4258 17.4908C15.3876 17.6451 14.4401 17.8511 13.6184 18.0996C12.6622 18.3888 11.8331 18.7484 11.2261 19.1824C11.1494 19.2373 11.0737 19.2952 11 19.3563C11.6701 15.1809 14.8511 11.8536 18.9309 11C18.9107 11.0208 18.8906 11.0418 18.8707 11.063C18.2979 11.6736 17.8171 12.516 17.4292 13.4936ZM23.0691 11C23.0894 11.0208 23.1094 11.0418 23.1293 11.063C23.7021 11.6736 24.183 12.516 24.5708 13.4936C25.0193 14.6239 25.3634 15.9855 25.5743 17.4908C26.6125 17.6451 27.5599 17.8511 28.3817 18.0996C29.3378 18.3888 30.1669 18.7484 30.774 19.1824C30.8506 19.2373 30.9263 19.2953 31 19.3564C30.33 15.1809 27.1489 11.8536 23.0691 11ZM31 22.6433C30.9264 22.7045 30.8507 22.7624 30.774 22.8173C30.1669 23.2514 29.3378 23.6109 28.3817 23.9001C27.5599 24.1486 26.6125 24.3546 25.5743 24.509C25.3634 26.0142 25.0193 27.3758 24.5708 28.5062C24.183 29.4837 23.7021 30.3262 23.1293 30.9368C23.1093 30.9581 23.0892 30.9792 23.0688 31C27.1488 30.1465 30.3301 26.8191 31 22.6433ZM18.9312 31C18.9109 30.9792 18.8907 30.9581 18.8707 30.9368C18.2979 30.3262 17.8171 29.4837 17.4292 28.5062C16.9808 27.3758 16.6367 26.0142 16.4258 24.509C15.3876 24.3546 14.4401 24.1486 13.6184 23.9001C12.6622 23.6109 11.8331 23.2514 11.2261 22.8173C11.1494 22.7624 11.0737 22.7045 11 22.6433C11.67 26.8191 14.8512 30.1465 18.9312 31ZM14.055 22.4327C14.6995 22.6276 15.441 22.7966 16.2583 22.9322C16.2121 22.304 16.188 21.6581 16.188 20.9999C16.188 20.3416 16.2121 19.6957 16.2583 19.0675C15.441 19.2031 14.6995 19.3721 14.055 19.567C13.1779 19.8323 12.5234 20.133 12.1052 20.432C11.6672 20.7452 11.6293 20.9482 11.6293 20.9999C11.6293 21.0515 11.6672 21.2545 12.1052 21.5677C12.5234 21.8668 13.1779 22.1674 14.055 22.4327ZM17.7076 20.9999C17.7076 21.7365 17.7395 22.4518 17.7994 23.1379C18.7983 23.2411 19.8749 23.2978 21 23.2978C22.1252 23.2978 23.2018 23.2411 24.2007 23.1379C24.2606 22.4518 24.2924 21.7365 24.2924 20.9999C24.2924 20.2633 24.2606 19.5479 24.2007 18.8619C23.2018 18.7586 22.1252 18.7019 21 18.7019C19.8749 18.7019 18.7983 18.7586 17.7994 18.8619C17.7395 19.5479 17.7076 20.2633 17.7076 20.9999ZM18.8401 27.9372C18.4807 27.0313 18.1882 25.9309 17.9905 24.6956C18.9469 24.7832 19.9574 24.8298 21 24.8298C22.0427 24.8298 23.0531 24.7832 24.0095 24.6956C23.8119 25.9309 23.5193 27.0313 23.1599 27.9372C22.8144 28.8079 22.4221 29.4611 22.0253 29.8841C21.63 30.3055 21.2833 30.4471 21 30.4471C20.7168 30.4471 20.37 30.3055 19.9748 29.8841C19.5779 29.4611 19.1856 28.8079 18.8401 27.9372ZM27.945 22.4327C27.3005 22.6276 26.559 22.7966 25.7417 22.9322C25.788 22.304 25.812 21.6581 25.812 20.9999C25.812 20.3416 25.788 19.6957 25.7417 19.0675C26.559 19.2031 27.3005 19.3721 27.945 19.567C28.8221 19.8323 29.4766 20.133 29.8948 20.432C30.3328 20.7452 30.3707 20.9482 30.3707 20.9999C30.3707 21.0515 30.3328 21.2545 29.8948 21.5677C29.4766 21.8668 28.8221 22.1674 27.945 22.4327Z" fill="#141414"/>
</svg>
